# xmcd
# 
# Track frame offsets:
#	150
#	15050
#	26637
#	45500
#	64775
#	84837
#	98787
#	110075
#	122150
#	138875
#	154907
#
# Disc length: 2280 seconds
#
# Revision: 1
# Processed by: cddbd v1.4PL0 Copyright (c) Steve Scherf et al.
# Submitted via: Audio-CD-Archiv 2.10.446
#
DISCID=7f08e60b
DTITLE=Steve Riley and the Mamou Playboys - Happytown
DYEAR=1900
DGENRE=country
TTITLE0=Creole Stomp [Happytown]
TTITLE1=Big Boy Waltz
TTITLE2=Gros Jean/Big John
TTITLE3=Seems to Me
TTITLE4=Les vigilants/The Vigilantes
TTITLE5=La creve de faim/Starvation 2-Step
TTITLE6=Patoutville
TTITLE7=Poche Bridge
TTITLE8=Mes enfants/My Children
TTITLE9=Heat Lightning/Eclairs de chaleur
TTITLE10=Pointe aux Chenes/Oak Point
EXTD=
EXTT0=
EXTT1=
EXTT2=
EXTT3=
EXTT4=
EXTT5=
EXTT6=
EXTT7=
EXTT8=
EXTT9=
EXTT10=
PLAYORDER=
